<?xml version="1.0" encoding="iso-8859-1"?>
<!-- Generator: Adobe Illustrator 19.0.0, SVG Export Plug-In . SVG Version: 6.00 Build 0)  -->
<svg version="1.1" id="Capa_1" xmlns="http://www.w3.org/2000/svg" xmlns:xlink="http://www.w3.org/1999/xlink" x="0px" y="0px"
	 viewBox="0 0 512 512" style="enable-background:new 0 0 512 512;" xml:space="preserve">
<g>
	<g>
		<path d="M421.036,424.571V105c0-24.813-20.187-45-45-45c-5.852,0-11.446,1.123-16.579,3.164C354.247,44.075,336.754,30,316.036,30
			c-5.852,0-11.446,1.123-16.579,3.164C294.247,14.075,276.754,0,256.036,0c-20.718,0-38.211,14.075-43.421,33.164
			C207.482,31.123,201.887,30,196.036,30c-24.813,0-45,20.187-45,45v105.344l-11.561-12.898
			c-16.561-18.477-45.068-20.037-63.545-3.475c-8.951,8.023-14.241,19.051-14.897,31.053c-0.656,12.002,3.4,23.542,11.423,32.492
			c31.327,34.95,48.58,80.047,48.58,126.984v70.07c-17.461,6.191-30,22.874-30,42.43c0,24.813,20.187,45,45,45h270
			c24.813,0,45-20.187,45-45C451.036,447.444,438.497,430.762,421.036,424.571z M211.036,482h-75c-8.272,0-15-6.729-15-15
			s6.729-15,15-15c8.284,0,15-6.716,15-15v-82.5c0-54.338-19.974-106.546-56.24-147.007c-2.674-2.983-4.026-6.83-3.808-10.831
			c0.219-4.001,1.982-7.677,4.966-10.351c2.774-2.487,6.296-3.831,9.993-3.831c0.278,0,0.558,0.007,0.838,0.023
			c4,0.219,7.677,1.982,10.351,4.966l33.9,37.822V257c0,8.284,6.716,15,15,15s15-6.716,15-15v-37.447V75c0-8.271,6.729-15,15-15
			s15,6.729,15,15v152c0,8.284,6.716,15,15,15s15-6.716,15-15V45c0-8.271,6.729-15,15-15s15,6.729,15,15v182c0,8.284,6.716,15,15,15
			s15-6.716,15-15V75c0-8.271,6.729-15,15-15s15,6.729,15,15v152c0,8.284,6.716,15,15,15s15-6.716,15-15V105c0-8.271,6.729-15,15-15
			s15,6.729,15,15v197h-15c-90.981,0-165,74.019-165,165V482z M406.036,482h-165v-15c0-74.439,60.561-135,135-135h15v105.001
			c0,8.284,6.716,15,15,15c8.271,0,15,6.729,15,14.999C421.036,475.271,414.307,482,406.036,482z"/>
	</g>
</g>
<g>
</g>
<g>
</g>
<g>
</g>
<g>
</g>
<g>
</g>
<g>
</g>
<g>
</g>
<g>
</g>
<g>
</g>
<g>
</g>
<g>
</g>
<g>
</g>
<g>
</g>
<g>
</g>
<g>
</g>
</svg>
