<?xml version="1.0" encoding="iso-8859-1"?>
<!-- Generator: Adobe Illustrator 19.0.0, SVG Export Plug-In . SVG Version: 6.00 Build 0)  -->
<svg version="1.1" id="Capa_1" xmlns="http://www.w3.org/2000/svg" xmlns:xlink="http://www.w3.org/1999/xlink" x="0px" y="0px"
	 viewBox="0 0 512 512" style="enable-background:new 0 0 512 512;" xml:space="preserve">
<g>
	<g>
		<path d="M148.823,85.994L124.46,61.631c-3.79-3.789-9.312-5.27-14.489-3.882l-33.28,8.917c-5.176,1.387-9.22,5.43-10.606,10.606
			l-8.917,33.28c-1.387,5.176,0.093,10.7,3.882,14.489l24.362,24.364c3.783,3.783,9.301,5.272,14.489,3.882l33.281-8.917
			c5.176-1.387,9.22-5.43,10.606-10.606l8.917-33.28C154.092,95.308,152.612,89.784,148.823,85.994z M117.051,117.633l-16.549,4.434
			l-12.114-12.114l4.433-16.549l16.549-4.435l12.115,12.115L117.051,117.633z"/>
	</g>
</g>
<g>
	<g>
		<path d="M452.337,389.508l-24.363-24.363c-3.788-3.789-9.314-5.268-14.488-3.882l-33.28,8.917
			c-5.177,1.387-9.22,5.43-10.607,10.606l-8.917,33.28c-1.387,5.176,0.094,10.7,3.883,14.489l24.363,24.363
			c3.775,3.775,9.292,5.275,14.489,3.882l33.28-8.917c5.176-1.387,9.219-5.43,10.606-10.606l8.917-33.28
			C457.607,398.82,456.126,393.297,452.337,389.508z M420.566,421.146l-16.55,4.435l-12.114-12.115l4.434-16.549l16.55-4.434
			L425,404.597L420.566,421.146z"/>
	</g>
</g>
<g>
	<g>
		<path d="M406.997,301.997c-5.911,0-11.864,0.598-18.291,1.856l-47.857-47.857l47.639-47.639
			c33.583,5.969,68.437-4.795,92.757-29.117c31.417-31.417,39.664-79.448,20.521-119.52c-2.1-4.394-6.2-7.495-10.999-8.318
			c-4.802-0.825-9.7,0.734-13.143,4.178l-38.806,38.806c-5.85,5.85-15.364,5.849-21.214,0c-5.849-5.849-5.849-15.365,0-21.214
			l38.807-38.807c3.443-3.443,5.001-8.343,4.178-13.142c-0.823-4.799-3.925-8.9-8.318-10.999
			C412.199-8.92,364.166-0.674,332.749,30.744c-24.322,24.322-35.085,59.182-29.116,92.757l-47.639,47.64l-47.64-47.64
			c5.968-33.575-4.794-68.436-29.116-92.757c-40.939-40.94-107.556-40.94-148.494,0c-40.941,40.94-40.941,107.557,0,148.496
			c24.322,24.322,59.18,35.086,92.755,29.116l47.64,47.639L123.5,303.635c-33.577-5.968-68.437,4.795-92.757,29.117
			c-31.418,31.417-39.664,79.448-20.52,119.52c2.099,4.394,6.2,7.495,10.999,8.318c4.798,0.823,9.699-0.734,13.142-4.178
			l38.806-38.806c5.849-5.849,15.365-5.849,21.214,0s5.848,15.365,0,21.214l-38.806,38.806c-3.443,3.443-5.001,8.343-4.178,13.142
			s3.925,8.9,8.318,10.999c40.24,19.224,88.238,10.762,119.52-20.521c24.322-24.322,35.084-59.182,29.117-92.757l47.639-47.639
			l47.857,47.856c-1.257,6.426-1.855,12.38-1.855,18.291c0,57.898,47.104,105.002,105.002,105.002S512,464.895,512,406.997
			C512,349.099,464.896,301.997,406.997,301.997z M138.903,181.334c-3.786-3.786-9.304-5.267-14.477-3.886
			c-25.826,6.897-53.593-0.544-72.469-19.42c-29.244-29.244-29.244-76.826,0-106.069c29.243-29.243,76.825-29.243,106.068,0
			c18.875,18.875,26.318,46.645,19.42,72.471c-1.381,5.173,0.1,10.69,3.886,14.477l53.449,53.448l-42.428,42.428L138.903,181.334z
			 M245.39,309.03c0,0-0.001,0.001-0.002,0.001c-0.001,0-0.001,0.001-0.001,0.001l-64.056,64.055
			c-3.786,3.786-5.267,9.303-3.886,14.477c6.896,25.826-0.545,53.595-19.42,72.471c-16.966,16.965-40.709,24.472-63.65,21.224
			l21.223-21.224c17.546-17.545,17.546-46.095,0-63.641c-17.544-17.545-46.095-17.546-63.641,0l-21.223,21.224
			c-3.25-22.942,4.259-46.686,21.223-63.651c18.876-18.875,46.645-26.319,72.471-19.42c5.176,1.383,10.69-0.099,14.477-3.886
			l64.053-64.052c0.001-0.001,0.002-0.002,0.003-0.003c0.001-0.001,0.002-0.002,0.003-0.003l63.637-63.637
			c0,0,0.001-0.001,0.002-0.001c0.001,0,0.001-0.001,0.001-0.002l64.055-64.054c3.786-3.786,5.268-9.303,3.886-14.477
			c-6.896-25.826,0.545-53.595,19.42-72.471c16.965-16.965,40.708-24.476,63.65-21.224l-21.223,21.224
			c-17.546,17.545-17.546,46.095,0,63.641c17.586,17.587,46.053,17.589,63.641,0l21.224-21.224
			c3.249,22.942-4.259,46.686-21.224,63.651c-18.875,18.875-46.648,26.318-72.471,19.42c-5.173-1.382-10.69,0.1-14.477,3.886
			l-64.053,64.052c-0.001,0.001-0.002,0.002-0.003,0.003c-0.001,0.001-0.002,0.002-0.003,0.003L245.39,309.03z M406.997,482.001
			c-41.356,0-75.002-33.646-75.002-75.002c0-5.778,0.902-11.868,2.841-19.166c1.373-5.168-0.109-10.676-3.891-14.457l-53.739-53.738
			l42.428-42.428l53.738,53.738c3.78,3.781,9.285,5.263,14.457,3.891c7.298-1.938,13.389-2.841,19.166-2.841
			c41.356,0,75.002,33.646,75.002,75.002C481.998,448.355,448.354,482.001,406.997,482.001z"/>
	</g>
</g>
<g>
</g>
<g>
</g>
<g>
</g>
<g>
</g>
<g>
</g>
<g>
</g>
<g>
</g>
<g>
</g>
<g>
</g>
<g>
</g>
<g>
</g>
<g>
</g>
<g>
</g>
<g>
</g>
<g>
</g>
</svg>
