<?xml version="1.0" encoding="iso-8859-1"?>
<!-- Generator: Adobe Illustrator 19.0.0, SVG Export Plug-In . SVG Version: 6.00 Build 0)  -->
<svg version="1.1" id="Capa_1" xmlns="http://www.w3.org/2000/svg" xmlns:xlink="http://www.w3.org/1999/xlink" x="0px" y="0px"
	 viewBox="0 0 512.001 512.001" style="enable-background:new 0 0 512.001 512.001;" xml:space="preserve">
<g>
	<g>
		<path d="M474.726,103.284c-2.654-3.361-6.619-5.428-10.896-5.678c-4.268-0.253-8.455,1.339-11.483,4.368l-20.444,20.444
			c-5.848,5.848-15.364,5.849-21.212,0l-21.212-21.212c-5.848-5.849-5.848-15.365,0-21.212l20.425-20.426
			c3.031-3.031,4.621-7.215,4.367-11.494c-0.253-4.279-2.326-8.246-5.694-10.898C352.395-7.058,274.262-12.49,212.138,24.784
			c-3.961,2.376-6.606,6.445-7.17,11.03c-0.564,4.585,1.015,9.173,4.281,12.439l74.244,74.244l-55.861,55.861
			c-2.111,1.272-3.846,3.032-5.09,5.089l-58.548,58.548c-2.111,1.272-3.846,3.032-5.09,5.089l-58.548,58.548
			c-2.111,1.272-3.846,3.032-5.09,5.089l-55.718,55.718c-1.778,1.778-3.08,3.974-3.788,6.386L0.606,492.731
			c-1.542,5.26-0.092,10.943,3.782,14.821c3.826,3.83,9.491,5.353,14.818,3.797l120.005-35.054c2.418-0.707,4.619-2.01,6.4-3.792
			l243.944-243.944l74.244,74.244c2.83,2.831,6.652,4.394,10.605,4.394c0.609,0,1.222-0.037,1.833-0.112
			c4.586-0.565,8.655-3.21,11.032-7.171C524.547,237.782,519.14,159.532,474.726,103.284z M37.106,474.867l26.364-89.924
			l36.613-36.613l25.116,100.804L37.106,474.867z M150.219,425.469L124.833,323.58l38.888-38.888l25.386,101.889L150.219,425.469z
			 M213.857,361.832l-25.386-101.889l38.888-38.888l25.386,101.889L213.857,361.832z M277.494,298.194l-25.386-101.889
			l38.888-38.888l25.386,101.889L277.494,298.194z M341.132,234.557l-18.059-72.48l45.27,45.27L341.132,234.557z M470.439,267.017
			L245.035,41.613c42.395-18.014,91.579-14.528,130.979,9.418l-7.75,7.75c-17.544,17.544-17.544,46.093,0,63.637l21.212,21.212
			c17.544,17.545,46.094,17.545,63.638,0l7.788-7.788C484.963,175.281,488.494,224.541,470.439,267.017z"/>
	</g>
</g>
<g>
</g>
<g>
</g>
<g>
</g>
<g>
</g>
<g>
</g>
<g>
</g>
<g>
</g>
<g>
</g>
<g>
</g>
<g>
</g>
<g>
</g>
<g>
</g>
<g>
</g>
<g>
</g>
<g>
</g>
</svg>
