<?xml version="1.0" encoding="iso-8859-1"?>
<!-- Generator: Adobe Illustrator 19.0.0, SVG Export Plug-In . SVG Version: 6.00 Build 0)  -->
<svg version="1.1" id="Capa_1" xmlns="http://www.w3.org/2000/svg" xmlns:xlink="http://www.w3.org/1999/xlink" x="0px" y="0px"
	 viewBox="0 0 512 512" style="enable-background:new 0 0 512 512;" xml:space="preserve">
<g>
	<g>
		<path d="M452,0c-33.084,0-60,26.916-60,60h-61V45c0-24.813-20.187-45-45-45h-60c-24.813,0-45,20.187-45,45v15h-61
			c0-33.084-26.916-60-60-60S0,26.916,0,60v392c0,33.084,26.916,60,60,60h392c33.084,0,60-26.916,60-60V60
			C512,26.916,485.084,0,452,0z M211,45c0-8.271,6.729-15,15-15h60c8.271,0,15,6.729,15,15v45h-90V45z M235.27,362l-23.975-47.951
			C212.67,307.187,218.739,302,226,302c8.271,0,15,6.729,15,15c0,8.284,6.716,15,15,15s15-6.716,15-15c0-8.271,6.729-15,15-15
			c7.261,0,13.33,5.187,14.705,12.049L276.729,362H235.27z M261.729,392l-5.73,11.459L250.27,392H261.729z M286,272
			c-5.258,0-10.305,0.915-15,2.58V120h30v154.58C296.305,272.915,291.259,272,286,272z M211,120h30v154.58
			c-4.695-1.665-9.742-2.58-15-2.58s-10.305,0.915-15,2.58V120z M30,60c0-16.542,13.458-30,30-30s30,13.458,30,30v340.052
			C81.17,394.933,70.92,392,60,392s-21.17,2.933-30,8.052V60z M452,482H60c-16.542,0-30-13.458-30-30s13.458-30,30-30
			s30,13.458,30,30c0,8.284,6.716,15,15,15s15-6.716,15-15V90h61v227c0,2.38,0.609,4.764,1.583,6.708l59.999,120
			c2.541,5.082,7.735,8.292,13.417,8.292c5.682,0,10.875-3.21,13.417-8.292l60-120c0.94-1.878,1.584-4.303,1.584-6.708V90h61v362
			c0,8.284,6.716,15,15,15s15-6.716,15-15c0-16.542,13.458-30,30-30s30,13.458,30,30S468.542,482,452,482z M482,400.052
			c-8.83-5.119-19.08-8.052-30-8.052c-10.92,0-21.17,2.933-30,8.052V60c0-16.542,13.458-30,30-30s30,13.458,30,30V400.052z"/>
	</g>
</g>
<g>
</g>
<g>
</g>
<g>
</g>
<g>
</g>
<g>
</g>
<g>
</g>
<g>
</g>
<g>
</g>
<g>
</g>
<g>
</g>
<g>
</g>
<g>
</g>
<g>
</g>
<g>
</g>
<g>
</g>
</svg>
