<?xml version="1.0" encoding="iso-8859-1"?>
<!-- Generator: Adobe Illustrator 19.0.0, SVG Export Plug-In . SVG Version: 6.00 Build 0)  -->
<svg version="1.1" id="Capa_1" xmlns="http://www.w3.org/2000/svg" xmlns:xlink="http://www.w3.org/1999/xlink" x="0px" y="0px"
	 viewBox="0 0 512 512" style="enable-background:new 0 0 512 512;" xml:space="preserve">
<g>
	<g>
		<circle cx="377" cy="286" r="15"/>
	</g>
</g>
<g>
	<g>
		<path d="M452,363.58V230.855c35.443-16.882,60-53.053,60-94.855c0-57.908-47.119-105-105-105h-211c-8.284,0-15,6.716-15,15v15h-75
			c-8.284,0-15,6.716-15,15v15H45c-3.978,0-7.793,1.581-10.606,4.394l-30,30c-5.858,5.858-5.858,15.355,0,21.213l30,30
			C37.205,179.419,41.021,181,45,181h46v15c0,8.284,6.716,15,15,15h75v15c0,8.284,6.716,15,15,15h20.729l25.854,51.708
			c2.541,5.082,7.735,8.292,13.417,8.292h45v60h-15c-41.355,0-75,33.645-75,75v30c0,8.284,6.716,15,15,15h241
			c8.284,0,15-6.716,15-15v-60C482,386.445,469.458,369.772,452,363.58z M90.999,151H51.213l-15-15l15-15h39.787V151z M180.999,181
			h-60V91h60V181z M240.999,211c-10.492,0-19.508,0-30,0c0-22.308,0-130.148,0-150h30V211z M271,61h30v45c0,8.284,6.716,15,15,15
			s15-6.716,15-15V61h31v45c0,8.284,6.716,15,15,15s15-6.716,15-15V61h15c5.136,0,10.152,0.521,15,1.509V106c0,8.284,6.716,15,15,15
			s15-6.716,15-15V76.041c18.204,13.697,30,35.475,30,59.959c0,41.355-33.645,75-75,75c-25.878,0-102.26,0-136,0V61z M422,239.924
			V361h-91c0-38.219,0-98.271,0-120h76C412.093,241,417.099,240.628,422,239.924z M265.27,271l-15-30H301v30H265.27z M452,451h-211
			v-15c0-24.813,20.187-45,45-45h151c8.271,0,15,6.729,15,15V451z"/>
	</g>
</g>
<g>
</g>
<g>
</g>
<g>
</g>
<g>
</g>
<g>
</g>
<g>
</g>
<g>
</g>
<g>
</g>
<g>
</g>
<g>
</g>
<g>
</g>
<g>
</g>
<g>
</g>
<g>
</g>
<g>
</g>
</svg>
